<svg width="18" height="22" viewBox="0 0 18 22" fill="none" xmlns="http://www.w3.org/2000/svg">
<path d="M17 12H17.75V11.25H17V12ZM9 15V14.25C8.58579 14.25 8.25 14.5858 8.25 15H9ZM13 15H13.75C13.75 14.5858 13.4142 14.25 13 14.25V15ZM13 21L12.4697 21.5303C12.6842 21.7448 13.0068 21.809 13.287 21.6929C13.5673 21.5768 13.75 21.3033 13.75 21H13ZM9 21H8.25C8.25 21.3033 8.43273 21.5768 8.71299 21.6929C8.99324 21.809 9.31583 21.7448 9.53033 21.5303L9 21ZM11 19L11.5303 18.4697C11.2374 18.1768 10.7626 18.1768 10.4697 18.4697L11 19ZM5 4.25C4.58579 4.25 4.25 4.58579 4.25 5C4.25 5.41421 4.58579 5.75 5 5.75V4.25ZM13 5.75C13.4142 5.75 13.75 5.41421 13.75 5C13.75 4.58579 13.4142 4.25 13 4.25V5.75ZM5 7.75C4.58579 7.75 4.25 8.08579 4.25 8.5C4.25 8.91421 4.58579 9.25 5 9.25V7.75ZM9 9.25C9.41421 9.25 9.75 8.91421 9.75 8.5C9.75 8.08579 9.41421 7.75 9 7.75V9.25ZM4 1.75H14V0.25H4V1.75ZM16.25 4V15H17.75V4H16.25ZM1.75 15V4H0.25V15H1.75ZM14 17.25H13.5714V18.75H14V17.25ZM9 17.25H4V18.75H9V17.25ZM0.25 15C0.25 17.0711 1.92893 18.75 4 18.75V17.25C2.75736 17.25 1.75 16.2426 1.75 15H0.25ZM16.25 15C16.25 16.2426 15.2426 17.25 14 17.25V18.75C16.0711 18.75 17.75 17.0711 17.75 15H16.25ZM14 1.75C15.2426 1.75 16.25 2.75736 16.25 4H17.75C17.75 1.92893 16.0711 0.25 14 0.25V1.75ZM4 0.25C1.92893 0.25 0.25 1.92893 0.25 4H1.75C1.75 2.75736 2.75736 1.75 4 1.75V0.25ZM4 12.75H17V11.25H4V12.75ZM16.25 12V15H17.75V12H16.25ZM4 11.25C1.92893 11.25 0.25 12.9289 0.25 15H1.75C1.75 13.7574 2.75736 12.75 4 12.75V11.25ZM9 15.75H13V14.25H9V15.75ZM12.25 15V21H13.75V15H12.25ZM9.75 21V15H8.25V21H9.75ZM13.5303 20.4697L11.5303 18.4697L10.4697 19.5303L12.4697 21.5303L13.5303 20.4697ZM10.4697 18.4697L8.46967 20.4697L9.53033 21.5303L11.5303 19.5303L10.4697 18.4697ZM5 5.75H13V4.25H5V5.75ZM5 9.25H9V7.75H5V9.25Z" fill="#64748B"/>
</svg>
